<svg width="391" height="147" viewBox="0 0 391 147" fill="none" xmlns="http://www.w3.org/2000/svg">
<g clip-path="url(#clip0_74_1570)">
<path d="M219.88 72.51C221.43 62.43 222.95 52.7 224.42 42.97C226.27 30.75 227.97 18.5 230.01 6.3C230.38 4.09 232.04 2.09 233.1 0C234.71 1.73 236.85 3.21 237.85 5.24C247.88 25.5 257.72 45.85 267.61 66.18C268.21 67.4 268.83 68.62 269.86 70.68C279.28 66.97 288.6 63.29 298.04 59.57C297.41 60.12 296.81 60.7 296.14 61.21C278.51 74.77 259.49 85.43 237.37 89.78C214.36 94.3 191.92 91.4 170.36 83.14C150.21 75.42 130.59 66.32 110.77 57.75C96.32 51.51 81.79 45.53 66.35 42.09C65.15 41.82 63.94 41.64 61.98 41.29C61.98 46.6 61.95 51.52 61.99 56.45C62.06 65.74 60.95 64.48 70.23 64.58C73.35 64.61 76.51 64.86 79.6 64.52C88.88 63.5 97.15 66.18 105.48 70.04C127.24 80.12 149.02 90.12 172.1 97C203.8 106.45 234.67 104.94 265.02 91.54C275.82 86.77 286.96 82.76 298.85 78.05C292.2 82.84 286.23 87.13 279.98 91.63C283.21 98.29 286.45 104.98 290 112.28C290.94 110.45 291.62 109.18 292.24 107.88C308.43 73.95 324.61 40.01 340.8 6.08C341.39 4.84 341.86 3.48 342.73 2.46C343.62 1.42 345.05 -0.07 346.01 0.09C347.04 0.26 348.34 2.01 348.56 3.25C349.79 10.01 350.76 16.81 351.77 23.61C356.94 58.45 361.95 93.32 367.31 128.13C369.24 140.68 372.55 142.36 385.35 143.89C386.88 144.07 388.41 144.19 389.95 144.34C390.02 144.72 390.09 145.09 390.17 145.47C389.08 145.91 387.98 146.75 386.9 146.73C373.16 146.49 359.42 146.15 345.68 145.74C344.4 145.7 343.15 145.06 341.29 144.53C348.34 138.18 344.17 131.1 343.39 124.64C340.51 100.83 337.04 77.09 333.77 53.33C333.64 52.4 333.32 51.49 332.87 49.74C331.72 52 330.92 53.51 330.18 55.06C317.16 82.2 304.15 109.34 291.11 136.47C289.81 139.17 288.5 141.87 286.96 144.44C285.03 147.68 283.57 147.71 281.53 144.46C279.68 141.5 278.07 138.38 276.46 135.28C270.85 124.41 265.29 113.52 259.61 102.44C258.72 102.68 257.92 102.88 257.11 103.1C248.33 105.48 239.59 107.98 230.76 110.16C228.36 110.75 227.16 111.41 226.94 114.11C226.38 121.07 225.3 128 224.72 134.96C224.31 139.87 226.19 142.11 231.01 143.08C233.21 143.52 235.47 143.62 237.69 143.92C238.81 144.07 239.92 144.33 241.03 144.54C241.07 144.97 241.1 145.41 241.14 145.84C239.87 146.18 238.61 146.82 237.34 146.82C224.35 146.88 211.36 146.87 198.37 146.79C197.25 146.78 196.13 146.11 195.01 145.75C195.06 145.34 195.1 144.93 195.15 144.53C196.52 144.33 197.88 144.03 199.26 143.95C205.43 143.59 208.2 141.97 209.6 136.11C211.5 128.16 212.65 120.03 214.22 111.45C195.24 110.88 177.94 105.94 160.62 98.72C160.62 102.96 160.49 106.54 160.65 110.12C161.01 118.48 161.27 126.85 162.03 135.18C162.53 140.66 165.06 142.68 170.59 143.29C173.93 143.66 177.28 143.93 180.62 144.29C180.94 144.32 181.23 144.7 182.47 145.58C180.34 146.19 179.1 146.85 177.85 146.86C160.11 146.9 142.36 146.86 124.62 146.79C123.48 146.79 122.35 146.33 121.21 146.08C121.17 145.7 121.14 145.32 121.1 144.94C122.22 144.63 123.33 144.11 124.47 144.04C133.48 143.46 135.46 142.35 136.06 133.3C137.02 118.73 137.01 104.1 137.24 89.49C137.26 88.48 136.09 87.05 135.09 86.5C127.99 82.56 120.82 78.75 113.6 75.04C112.23 74.34 110.51 74.06 108.94 74.05C94.82 73.92 80.7 74 66.58 73.78C62.93 73.72 61.88 74.95 61.93 78.51C62.14 93.76 62.02 109.01 62.22 124.25C62.28 128.34 62.91 132.45 63.56 136.5C64.21 140.51 66.67 142.96 70.82 143.42C73.54 143.72 76.28 143.89 79.01 144.15C80.19 144.26 81.35 144.47 82.53 144.63C82.58 145.02 82.62 145.41 82.67 145.8C81.4 146.07 80.13 146.6 78.86 146.58C71.49 146.46 64.13 146.05 56.76 146.07C47.02 146.09 37.28 146.43 27.54 146.58C26.15 146.6 24.76 146.27 23.37 146.11C23.34 145.69 23.31 145.28 23.27 144.86C24.7 144.62 26.13 144.24 27.57 144.17C34.58 143.8 36.82 142.09 37.79 135.27C38.55 129.97 39.1 124.6 39.13 119.25C39.3 93.88 39.26 68.51 39.28 43.14C39.28 38.34 38.78 37.71 33.81 38.22C22.56 39.35 11.33 40.75 0 42.35C3.01 41.48 6.07 40.74 9.01 39.69C10.66 39.1 12.01 37.64 13.67 37.16C20.98 35.07 28.31 33.04 35.71 31.31C38.44 30.67 39.56 29.58 39.29 26.8C38.97 23.57 38.94 20.32 38.65 17.09C38.05 10.61 34.9 7.63 28.3 7.05C25.8 6.83 23.31 6.48 20.82 6.19C20.86 5.81 20.9 5.42 20.94 5.04C39.8 5.04 58.66 5.04 77.52 5.04C77.56 5.41 77.6 5.78 77.64 6.16C75.52 6.48 73.4 6.84 71.27 7.11C66.09 7.78 63.59 9.86 62.81 15.04C62.24 18.85 62.14 22.75 62.2 26.6C62.21 27.47 63.72 29.04 64.57 29.07C100.23 29.99 132.3 44 164.8 56.49C181.95 63.08 199.23 69.26 217.46 72.25C218.06 72.34 218.68 72.38 219.88 72.51ZM236.24 52.49C235.85 52.53 235.45 52.57 235.06 52.61C234.16 59.61 233.25 66.61 232.33 73.76C237.25 73.76 241.47 73.76 246.23 73.76C242.74 66.33 239.49 59.41 236.24 52.49Z" fill="white"/>
<path d="M176.8 6.47999C175.19 6.73999 173.58 7.08999 171.96 7.22999C164.06 7.90999 161.49 10.27 161.27 18.24C161.01 27.47 161.21 36.71 161.21 46.61C153.15 43.47 145.95 40.76 138.86 37.77C138.04 37.43 137.51 35.59 137.45 34.41C137.13 28.67 137.17 22.92 136.8 17.19C136.38 10.66 133.14 7.60999 126.57 7.03999C124.08 6.81999 121.59 6.50999 119.16 5.89999C122.33 3.93999 174.52 3.89999 176.8 6.47999Z" fill="white"/>
<path d="M236.24 52.4902C239.49 59.4102 242.73 66.3202 246.23 73.7602C241.47 73.7602 237.25 73.7602 232.33 73.7602C233.25 66.6002 234.16 59.6002 235.06 52.6102C235.46 52.5802 235.85 52.5402 236.24 52.4902Z" fill="black"/>
</g>
<defs>
<clipPath id="clip0_74_1570">
<rect width="390.16" height="146.91" fill="white"/>
</clipPath>
</defs>
</svg>
